<svg width="1300" height="650" viewBox="0 0 1300 650" fill="none" xmlns="http://www.w3.org/2000/svg">
<g id="Frame">
<rect width="1300" height="650" fill="white" fill-opacity="0"/>
<path id="fasad-right" d="M950.5 100.5H1270C1286.29 100.5 1299.5 113.708 1299.5 130V649.5H950.5V100.5Z" fill="#D5A8A8" stroke="black"/>
<rect id="fasad-center" x="350.5" y="75.5" width="599" height="574" fill="#D5A8A8" stroke="black"/>
<path id="fasad-left" d="M0.5 130C0.5 113.708 13.7076 100.5 30 100.5H349.5V649.5H0.5V130Z" fill="#D5A8A8" stroke="black"/>
<g id="stair">
<rect width="550" height="69" fill="black" fill-opacity="0" transform="translate(375 581)"/>
<rect id="Rectangle" x="375.5" y="615.5" width="549" height="34" fill="#C4C4C4" stroke="black"/>
<rect id="Rectangle_2" x="400.5" y="581.5" width="499" height="34" fill="#C4C4C4" stroke="black"/>
</g>
<g id="bull">
<rect width="226.274" height="226.274" fill="black" fill-opacity="0" transform="translate(537)"/>
<rect id="Rectangle 12" x="537.5" y="113.637" width="159" height="159" rx="19.5" transform="rotate(-45 537.5 113.637)" fill="#F6E6E6" stroke="black"/>
<g id="icon">
<rect width="158" height="141" fill="black" fill-opacity="0" transform="translate(571 55)"/>
<path id="Vector" d="M714.515 58.8896C707.654 55.5262 700.838 55.3473 700.552 55.3419L688.394 55.0907L698.353 62.0765C701.47 64.2626 704.448 67.68 706.523 71.4512C708.694 75.3946 709.724 79.4263 709.427 82.8026C709.056 86.9987 706.749 90.0306 702.369 92.068C700.435 92.9676 698.579 93.4057 696.694 93.4057C690.713 93.4057 685.145 88.8413 679.759 84.4284C675.156 80.6559 670.808 77.0927 665.924 76.0166C664.339 75.6667 662.781 75.4904 661.292 75.4904C655.972 75.4904 652.327 77.6555 650.003 79.8429C647.677 77.6555 644.033 75.4904 638.714 75.4904C637.226 75.4904 635.668 75.668 634.082 76.0166C629.197 77.0927 624.849 80.6559 620.245 84.4284C614.858 88.8416 609.289 93.4057 603.31 93.4057H603.309C601.426 93.4057 599.571 92.9676 597.636 92.068C593.257 90.0293 590.948 86.9987 590.579 82.8026C590.282 79.4263 591.312 75.3946 593.483 71.4512C595.558 67.68 598.535 64.2628 601.652 62.0765L611.738 55L599.424 55.3419C599.139 55.3499 592.371 55.5747 585.537 58.9868C578.971 62.2646 571.12 69.0928 571.001 83.0133C570.924 92.1445 574.21 100.533 580.254 106.635C585.706 112.138 592.945 115.38 600.832 115.899C599.741 117.4 598.731 119.078 597.808 120.935C594.653 127.293 593.616 133.552 593.573 133.815L592.856 138.244L597.335 138.109C602.925 137.94 607.928 136.391 612.058 134.461C612.845 138.063 614.074 141.484 615.741 144.67C617.913 148.817 620.159 153.305 621.878 158.02C622.603 160.011 623.264 161.94 623.377 163.681C623.325 163.878 622.961 164.41 622.718 164.766C622.23 165.478 621.624 166.366 621.188 167.5C619.73 171.299 620.209 175.819 622.503 179.899C623.608 181.864 624.775 183.476 626.301 184.549C624.46 188.774 625.432 191.574 626.678 193.235C628.054 195.07 630.223 196 633.124 196C635.397 196 638.018 195.453 640.795 194.873C643.879 194.228 647.07 193.563 649.998 193.563C652.927 193.563 656.118 194.228 659.202 194.873C661.977 195.453 664.599 196 666.872 196H666.874C669.774 196 671.943 195.07 673.319 193.235C674.565 191.574 675.537 188.774 673.696 184.549C675.222 183.476 676.389 181.864 677.494 179.899C679.544 176.254 680.16 172.479 679.278 168.981C678.959 167.718 678.452 166.509 677.77 165.385C677.474 164.9 677.174 164.496 676.934 164.171C676.83 164.03 676.698 163.853 676.615 163.728C676.641 163.262 676.742 162.732 676.841 162.265C677.452 159.362 678.698 156.383 679.819 153.818C681.028 151.05 682.437 148.144 684.257 144.669C685.941 141.454 687.176 137.999 687.962 134.364C692.131 136.337 697.206 137.935 702.888 138.107L707.368 138.243L706.65 133.814C706.608 133.551 705.57 127.292 702.415 120.934C701.528 119.145 700.559 117.523 699.514 116.066C707.488 115.581 714.74 112.225 720.108 106.491C725.842 100.366 729 91.9789 729 82.8727C729.001 68.9204 721.123 62.1292 714.515 58.8896ZM677.704 141.232C675.801 144.866 674.319 147.922 673.04 150.853C671.771 153.755 670.356 157.151 669.601 160.742C669.418 161.612 669.229 162.654 669.21 163.787C669.173 166.137 670.271 167.615 670.997 168.592C671.177 168.835 671.334 169.044 671.449 169.235C671.748 169.725 671.969 170.251 672.106 170.796C672.623 172.844 671.816 174.902 671.049 176.268C670.409 177.406 669.968 177.985 669.679 178.277C669.602 178.356 669.534 178.415 669.477 178.457C669.396 178.518 669.293 178.595 668.753 178.595C667.963 178.595 666.799 178.414 665.332 178.177C665.262 178.165 665.189 178.155 665.117 178.142C663.883 177.944 662.403 177.706 660.64 177.489C657.857 177.146 654.364 176.855 650.001 176.855C645.639 176.855 642.146 177.146 639.363 177.489C637.599 177.706 636.119 177.944 634.886 178.144C634.812 178.156 634.741 178.168 634.669 178.179C633.202 178.415 632.038 178.598 631.25 178.598C630.709 178.598 630.607 178.522 630.524 178.46C630.468 178.416 630.399 178.357 630.322 178.279C630.033 177.986 629.592 177.409 628.952 176.271C627.76 174.152 627.441 171.868 628.096 170.162C628.22 169.838 628.515 169.406 628.826 168.951C629.666 167.722 630.934 165.866 630.762 163.213C630.586 160.493 629.748 158.006 628.829 155.487C626.957 150.351 624.476 145.401 622.296 141.236C621.342 139.414 620.564 137.515 619.959 135.541C620.955 135.864 621.984 136.034 623.013 136.034C625.489 136.034 627.682 135.063 629.191 133.302C630.761 131.467 631.375 128.955 630.876 126.408C630.434 124.145 629.158 122.015 627.285 120.409C625.301 118.707 622.87 117.769 620.441 117.769C619.914 117.769 619.401 117.815 618.903 117.902C619.06 116.827 619.254 115.739 619.485 114.638C619.691 113.656 619.919 112.709 620.159 111.805C621.029 111.401 621.886 110.988 622.735 110.579C625.11 109.435 627.353 108.354 629.664 107.55C632.879 106.43 636.196 105.864 639.522 105.864C642.629 105.864 645.782 106.36 648.891 107.336L649.999 107.684L651.107 107.336C654.216 106.358 657.368 105.864 660.476 105.864C663.803 105.864 667.12 106.431 670.334 107.55C672.684 108.368 674.961 109.458 677.374 110.615C678.183 111.002 679 111.393 679.83 111.778C680.326 113.648 680.771 115.705 681.09 117.893C680.608 117.812 680.112 117.769 679.602 117.769C677.174 117.769 674.743 118.707 672.759 120.409C670.886 122.015 669.61 124.146 669.167 126.408C668.668 128.955 669.283 131.467 670.853 133.302C672.362 135.063 674.555 136.034 677.031 136.034C678.04 136.034 679.048 135.869 680.026 135.559C679.445 137.461 678.684 139.362 677.704 141.232ZM666.875 188.596C665.365 188.596 663.106 188.123 660.715 187.625C657.423 186.938 653.692 186.158 650 186.158C646.307 186.158 642.577 186.937 639.285 187.625C636.893 188.125 634.635 188.596 633.125 188.596C632.967 188.596 632.834 188.591 632.724 188.583C632.811 188.139 633.078 187.311 633.882 186.014C633.933 185.931 633.986 185.849 634.037 185.768C634.665 185.679 635.333 185.572 636.061 185.455C639.185 184.951 643.465 184.261 650 184.261C656.534 184.261 660.813 184.951 663.939 185.455C664.669 185.572 665.337 185.679 665.968 185.769C666.659 186.856 667.172 187.917 667.294 188.581C667.181 188.591 667.043 188.596 666.875 188.596ZM588.108 65.995C587.72 66.6106 587.351 67.2394 587 67.8772C584.969 71.5696 582.661 77.2676 583.207 83.4526C583.495 86.7225 584.555 89.6729 586.356 92.2233C588.287 94.9539 591.032 97.1611 594.515 98.783C597.408 100.129 600.364 100.811 603.308 100.811H603.31C611.931 100.81 618.837 95.1513 624.931 90.1583C628.831 86.9633 632.514 83.9446 635.672 83.2487C636.736 83.0146 637.758 82.8949 638.712 82.8949C641.079 82.8949 643.109 83.625 644.746 85.0639C645.486 85.7136 645.996 86.3819 646.302 86.8408V92.0417V95.7865V99.075C644.045 98.6634 641.778 98.4543 639.524 98.4543C635.368 98.4543 631.234 99.1593 627.235 100.552C624.525 101.495 621.984 102.72 619.527 103.904C619.256 104.034 618.987 104.164 618.719 104.293C617.134 105.053 615.591 105.778 614.045 106.393C613.192 106.731 612.338 107.037 611.475 107.298C608.677 108.142 605.852 108.57 603.08 108.57C596.314 108.57 590.074 106.031 585.507 101.421C580.864 96.7326 578.339 90.2174 578.4 83.0766C578.467 75.2093 581.732 69.4649 588.108 65.995ZM679.606 125.172C679.905 125.172 680.102 125.244 680.164 125.317C680.355 125.54 680.273 126.729 679.063 127.768C678.837 127.962 678.594 128.126 678.345 128.259C677.904 128.493 677.445 128.626 677.033 128.626C676.732 128.626 676.536 128.553 676.474 128.481C676.407 128.402 676.365 128.165 676.431 127.831C676.553 127.205 676.971 126.549 677.576 126.03C678.183 125.509 678.916 125.194 679.548 125.177C679.566 125.174 679.586 125.172 679.606 125.172ZM620.986 127.767C620.381 127.249 619.963 126.592 619.841 125.966C619.776 125.631 619.817 125.394 619.885 125.316C619.946 125.244 620.143 125.172 620.443 125.172C620.523 125.172 620.605 125.177 620.687 125.186C621.274 125.254 621.924 125.558 622.473 126.03C623.684 127.067 623.765 128.257 623.574 128.481C623.513 128.553 623.317 128.626 623.016 128.626C622.637 128.626 622.221 128.513 621.815 128.314C621.527 128.172 621.245 127.989 620.986 127.767ZM697.495 108.724H697.494C694.591 108.724 691.584 108.247 688.557 107.305C687.68 107.033 686.815 106.716 685.95 106.369C684.403 105.747 682.86 105.024 681.273 104.265C681.039 104.153 680.805 104.042 680.569 103.929C678.08 102.737 675.506 101.504 672.766 100.551C668.767 99.159 664.633 98.4525 660.477 98.4525C658.223 98.4525 655.956 98.6618 653.699 99.0732V95.7847V92.0399V86.839C654.003 86.3801 654.515 85.713 655.254 85.0621C656.89 83.6231 658.922 82.8944 661.289 82.8944C662.243 82.8944 663.266 83.014 664.331 83.2482C667.488 83.9439 671.17 86.9615 675.071 90.1577C681.164 95.1508 688.071 100.811 696.692 100.811C699.635 100.811 702.594 100.128 705.486 98.7825C708.969 97.1606 711.714 94.9547 713.645 92.2228C715.447 89.6724 716.507 86.7219 716.795 83.4521C717.34 77.2671 715.032 71.5678 713.001 67.8767C712.612 67.1691 712.201 66.476 711.767 65.7958C714.564 67.2533 716.79 69.1486 718.39 71.436C720.52 74.481 721.6 78.3285 721.6 82.8729C721.6 90.0903 719.153 96.6802 714.708 101.427C710.306 106.133 704.193 108.724 697.495 108.724ZM602.116 130.076C603.585 125.369 606.524 118.577 611.767 115.667C611.146 119.426 610.909 123.102 611.061 126.651C608.545 128.025 605.506 129.33 602.116 130.076ZM688.945 126.528C689.087 122.974 688.843 119.296 688.211 115.533C693.61 118.365 696.618 125.297 698.11 130.075C694.621 129.307 691.502 127.947 688.945 126.528Z" fill="#611F22"/>
<path id="Vector_2" d="M642.811 143.116L639.175 142.437L635.54 141.749C635.44 142.277 633.175 154.766 639.668 163.433L645.586 158.99C641.068 152.957 642.794 143.213 642.811 143.116Z" fill="#611F22"/>
<path id="Vector_3" d="M660.547 163.433C667.041 154.766 664.774 142.277 664.675 141.749L657.406 143.125C657.424 143.222 659.114 153.002 654.629 158.988L660.547 163.433Z" fill="#611F22"/>
<path id="Vector_4" d="M641.556 173.948C640.785 172.325 638.703 171.407 636.479 171.776C636.376 171.793 636.274 171.812 636.17 171.835C633.529 172.413 631.765 174.61 632.23 176.741C632.333 177.211 632.538 177.64 632.82 178.017C633.533 178.962 634.749 179.57 636.137 179.675C636.69 179.718 637.27 179.681 637.857 179.551C640.499 178.973 642.262 176.776 641.797 174.645C641.742 174.4 641.661 174.169 641.556 173.948Z" fill="#611F22"/>
<path id="Vector_5" d="M663.669 171.835C663.627 171.826 663.586 171.82 663.544 171.81C661.251 171.358 659.075 172.281 658.281 173.948C658.176 174.168 658.094 174.4 658.041 174.645C657.575 176.776 659.339 178.973 661.98 179.551C662.621 179.692 663.256 179.724 663.855 179.66C665.238 179.515 666.433 178.869 667.106 177.888C667.343 177.544 667.515 177.159 667.607 176.74C668.074 174.611 666.31 172.414 663.669 171.835Z" fill="#611F22"/>
</g>
</g>
<g id="decor">
<rect width="750" height="75" fill="black" fill-opacity="0" transform="translate(275 50)"/>
<path id="decor-left" d="M275 50H425L395 125H305L275 50Z" fill="#611F22"/>
<path id="decor-right" d="M875 50H1025L995 125H905L875 50Z" fill="#611F22"/>
</g>
<g id="balki">
<rect width="1300" height="281" fill="black" fill-opacity="0" transform="translate(0 300)"/>
<rect id="Rectangle_3" x="325" y="300" width="650" height="50" fill="#502E15"/>
<rect id="Rectangle_4" y="350" width="375" height="50" fill="#502E15"/>
<rect id="Rectangle_5" x="925" y="350" width="375" height="50" fill="#502E15"/>
<rect id="Rectangle_6" x="425" y="350" width="50" height="231" fill="#73492A"/>
<rect id="Rectangle_7" x="825" y="350" width="50" height="231" fill="#73492A"/>
</g>
<g id="saloon">
<rect width="240" height="68" fill="black" fill-opacity="0" transform="translate(530 282)"/>
<path id="Rectangle_8" d="M531 332C531 304.938 552.938 283 580 283H720C747.062 283 769 304.938 769 332V349H531V332Z" fill="#F6E6E6" stroke="black" stroke-width="2"/>
<path id="saloon_2" d="M598.782 318.987C598.812 319.153 598.826 319.319 598.826 319.485C598.836 319.651 598.841 319.817 598.841 319.983C598.841 320.804 598.694 321.575 598.401 322.298C598.118 323.011 597.723 323.67 597.215 324.275C596.717 324.871 596.121 325.408 595.428 325.887C594.734 326.365 593.987 326.766 593.187 327.088C592.386 327.42 591.546 327.674 590.667 327.85C589.788 328.025 588.904 328.113 588.016 328.113C587.41 328.113 586.795 328.084 586.17 328.025C585.555 327.967 584.935 327.933 584.31 327.923C583.694 327.913 583.074 327.952 582.449 328.04C581.834 328.128 581.219 328.313 580.604 328.597C580.262 327.444 579.9 326.409 579.52 325.491C579.148 324.563 578.807 323.772 578.494 323.118C578.123 322.356 577.757 321.683 577.396 321.097C578.528 321.624 579.637 322.049 580.721 322.371C581.805 322.684 582.82 322.923 583.768 323.089C584.725 323.255 585.584 323.362 586.346 323.411C587.107 323.46 587.732 323.484 588.221 323.484C588.689 323.484 589.163 323.465 589.642 323.426C590.13 323.377 590.618 323.299 591.106 323.191C590.735 322.781 590.301 322.444 589.803 322.181C589.305 321.907 588.768 321.673 588.191 321.478C587.625 321.282 587.029 321.106 586.404 320.95C585.789 320.794 585.179 320.628 584.573 320.452C583.968 320.267 583.382 320.057 582.815 319.822C582.249 319.578 581.731 319.271 581.263 318.899C580.687 318.45 580.267 317.938 580.003 317.361C579.739 316.785 579.578 316.16 579.52 315.486C579.188 315.604 578.895 315.721 578.641 315.838C578.387 315.945 578.172 316.038 577.996 316.116C577.791 316.214 577.61 316.302 577.454 316.38C577.776 315.501 578.221 314.725 578.787 314.051C579.363 313.377 580.008 312.791 580.721 312.293C581.434 311.795 582.19 311.375 582.991 311.033C583.802 310.691 584.603 310.408 585.394 310.184C587.249 309.666 589.251 309.373 591.399 309.305C592.034 309.295 592.728 309.271 593.479 309.231C594.124 309.192 594.871 309.134 595.721 309.056C596.58 308.978 597.498 308.86 598.475 308.704C598.221 309.065 598.011 309.461 597.845 309.891C597.688 310.32 597.566 310.76 597.479 311.209C597.391 311.658 597.327 312.103 597.288 312.542C597.259 312.972 597.244 313.372 597.244 313.743C597.244 313.978 597.249 314.202 597.259 314.417C597.269 314.632 597.283 314.822 597.303 314.988C597.322 315.184 597.347 315.369 597.376 315.545C595.726 314.871 594.163 314.397 592.688 314.124C591.214 313.851 589.822 313.714 588.514 313.714C588.123 313.714 587.747 313.729 587.386 313.758C587.024 313.777 586.663 313.802 586.302 313.831C586.38 314.212 586.526 314.529 586.741 314.783C586.966 315.037 587.19 315.242 587.415 315.398C587.679 315.574 587.967 315.711 588.279 315.809C588.943 315.994 589.661 316.224 590.433 316.497C591.214 316.771 591.99 317.103 592.762 317.493C593.543 317.874 594.285 318.328 594.988 318.855C595.701 319.373 596.326 319.979 596.863 320.672C597.195 320.428 597.522 320.164 597.845 319.881C598.167 319.598 598.479 319.3 598.782 318.987ZM623.318 321.478C622.908 321.673 622.503 321.863 622.103 322.049C621.702 322.225 621.297 322.396 620.887 322.562C621.785 324.183 622.776 325.711 623.86 327.146C622.347 327.146 620.901 327.293 619.524 327.586C618.147 327.889 616.751 328.353 615.335 328.978C615.442 328.724 615.506 328.46 615.525 328.187C615.555 327.923 615.569 327.649 615.569 327.366C615.569 326.897 615.525 326.385 615.438 325.828C615.35 325.262 615.218 324.671 615.042 324.056C614.632 324.114 614.222 324.158 613.812 324.188C613.401 324.207 613.001 324.217 612.61 324.217C611.917 324.217 611.233 324.178 610.56 324.1C609.896 324.012 609.256 323.87 608.641 323.675C608.475 324.397 608.323 325.14 608.187 325.901C608.05 326.653 607.913 327.43 607.776 328.23C607.278 327.977 606.731 327.747 606.136 327.542C605.628 327.376 605.037 327.22 604.363 327.073C603.699 326.927 602.996 326.854 602.254 326.854C601.619 326.854 600.945 326.907 600.232 327.015C599.52 327.122 598.733 327.298 597.874 327.542C598.538 326.888 599.158 326.224 599.734 325.55C600.32 324.866 600.853 324.212 601.331 323.587C601.819 322.952 602.249 322.361 602.62 321.814C603.001 321.258 603.318 320.774 603.572 320.364C603.289 320.022 603.025 319.656 602.781 319.266C602.547 318.875 602.322 318.455 602.107 318.006C602.498 318.201 602.884 318.382 603.265 318.548C603.646 318.704 604.021 318.851 604.393 318.987C604.842 318.196 605.315 317.4 605.813 316.6C606.312 315.799 606.844 315.018 607.41 314.256C607.293 313.973 607.142 313.65 606.956 313.289C606.78 312.928 606.585 312.557 606.37 312.176C606.165 311.785 605.945 311.399 605.711 311.019C605.477 310.638 605.247 310.286 605.022 309.964C605.96 310.218 606.897 310.418 607.835 310.564C608.782 310.711 609.725 310.809 610.662 310.857C611.199 310.418 611.761 310.018 612.347 309.656C612.933 309.285 613.548 308.958 614.192 308.675C613.987 309.017 613.787 309.368 613.592 309.729C613.396 310.091 613.206 310.457 613.021 310.828C613.509 310.779 614.002 310.726 614.5 310.667C614.998 310.599 615.516 310.511 616.053 310.403C616.414 311.722 616.81 313.006 617.239 314.256C617.669 315.506 618.133 316.736 618.631 317.947C619.061 317.703 619.485 317.454 619.905 317.2C620.335 316.937 620.76 316.653 621.18 316.351C621.482 317.376 621.81 318.318 622.161 319.178C622.513 320.037 622.898 320.804 623.318 321.478ZM613.504 319.925C613.162 319.163 612.786 318.396 612.376 317.625C611.976 316.844 611.541 316.058 611.072 315.267C610.496 316.81 609.969 318.45 609.49 320.188C609.666 320.208 609.837 320.218 610.003 320.218C610.179 320.218 610.354 320.218 610.53 320.218C611.028 320.218 611.521 320.198 612.01 320.159C612.508 320.11 613.006 320.032 613.504 319.925ZM643.87 327.088C642.259 326.893 640.716 326.741 639.241 326.634C637.767 326.517 636.302 326.458 634.847 326.458C633.167 326.458 631.478 326.526 629.778 326.663C628.089 326.8 626.336 327.01 624.52 327.293C624.949 327.01 625.379 326.731 625.809 326.458C626.238 326.175 626.678 325.906 627.127 325.652C627.322 324.588 627.464 323.538 627.552 322.503C627.649 321.458 627.698 320.418 627.698 319.383C627.698 317.83 627.601 316.302 627.405 314.798C627.21 313.284 626.941 311.771 626.6 310.257H628.006C629.08 310.257 630.154 310.198 631.229 310.081C632.312 309.964 633.47 309.783 634.7 309.539C634.7 311.775 634.578 313.992 634.334 316.189C634.09 318.377 633.689 320.579 633.133 322.796C634.715 322.21 636.341 321.702 638.011 321.272C639.69 320.843 641.453 320.491 643.299 320.218C643.25 320.608 643.211 321.004 643.182 321.404C643.162 321.805 643.152 322.21 643.152 322.62C643.152 323.401 643.206 324.168 643.313 324.92C643.431 325.662 643.616 326.385 643.87 327.088ZM663.177 309.993C662.835 310.267 662.513 310.555 662.21 310.857C661.907 311.15 661.619 311.463 661.346 311.795C662.264 311.971 663.133 312.254 663.953 312.645C664.773 313.025 665.486 313.509 666.092 314.095C666.697 314.681 667.176 315.364 667.527 316.146C667.889 316.917 668.069 317.776 668.069 318.724C668.069 319.798 667.889 320.77 667.527 321.639C667.176 322.498 666.683 323.27 666.048 323.953C665.423 324.627 664.681 325.213 663.821 325.711C662.962 326.199 662.029 326.604 661.023 326.927C660.018 327.239 658.958 327.474 657.845 327.63C656.731 327.786 655.608 327.864 654.476 327.864C654.075 327.864 653.66 327.854 653.23 327.835C652.801 327.825 652.381 327.806 651.971 327.776C651.57 327.747 651.194 327.703 650.843 327.645C650.501 327.596 650.213 327.532 649.979 327.454C650.252 327.229 650.511 327.005 650.755 326.78C651.009 326.546 651.238 326.312 651.443 326.077C650.516 325.901 649.642 325.638 648.821 325.286C648.011 324.935 647.298 324.485 646.683 323.938C646.067 323.382 645.579 322.732 645.218 321.99C644.866 321.238 644.69 320.379 644.69 319.412C644.69 318.279 644.896 317.259 645.306 316.351C645.726 315.433 646.297 314.617 647.02 313.904C647.742 313.191 648.592 312.581 649.568 312.073C650.545 311.565 651.595 311.146 652.718 310.813C653.841 310.481 655.008 310.237 656.219 310.081C657.439 309.925 658.65 309.847 659.852 309.847C660.35 309.847 660.857 309.861 661.375 309.891C661.902 309.91 662.454 309.944 663.03 309.993H663.177ZM661.712 317.698C661.712 316.868 661.531 316.189 661.17 315.662C660.818 315.135 660.35 314.715 659.764 314.402C659.656 314.656 659.554 314.92 659.456 315.193C659.358 315.457 659.271 315.73 659.192 316.014C658.509 315.818 657.933 315.687 657.464 315.618C657.005 315.55 656.619 315.516 656.307 315.516C655.691 315.516 655.071 315.618 654.446 315.823C653.821 316.028 653.26 316.326 652.762 316.717C652.264 317.098 651.854 317.566 651.531 318.123C651.219 318.67 651.062 319.29 651.062 319.983C651.062 320.647 651.229 321.258 651.561 321.814C651.902 322.361 652.347 322.869 652.894 323.338C652.981 323.035 653.045 322.728 653.084 322.415C653.133 322.103 653.167 321.78 653.187 321.448C653.909 321.78 654.549 322.01 655.105 322.137C655.662 322.264 656.15 322.327 656.57 322.327C657.215 322.327 657.845 322.225 658.46 322.02C659.075 321.805 659.622 321.497 660.101 321.097C660.589 320.696 660.979 320.213 661.272 319.646C661.565 319.07 661.712 318.421 661.712 317.698ZM688.372 309.993C688.03 310.267 687.708 310.555 687.405 310.857C687.103 311.15 686.814 311.463 686.541 311.795C687.459 311.971 688.328 312.254 689.148 312.645C689.969 313.025 690.682 313.509 691.287 314.095C691.893 314.681 692.371 315.364 692.723 316.146C693.084 316.917 693.265 317.776 693.265 318.724C693.265 319.798 693.084 320.77 692.723 321.639C692.371 322.498 691.878 323.27 691.243 323.953C690.618 324.627 689.876 325.213 689.017 325.711C688.157 326.199 687.225 326.604 686.219 326.927C685.213 327.239 684.153 327.474 683.04 327.63C681.927 327.786 680.804 327.864 679.671 327.864C679.271 327.864 678.855 327.854 678.426 327.835C677.996 327.825 677.576 327.806 677.166 327.776C676.766 327.747 676.39 327.703 676.038 327.645C675.696 327.596 675.408 327.532 675.174 327.454C675.447 327.229 675.706 327.005 675.95 326.78C676.204 326.546 676.434 326.312 676.639 326.077C675.711 325.901 674.837 325.638 674.017 325.286C673.206 324.935 672.493 324.485 671.878 323.938C671.263 323.382 670.774 322.732 670.413 321.99C670.062 321.238 669.886 320.379 669.886 319.412C669.886 318.279 670.091 317.259 670.501 316.351C670.921 315.433 671.492 314.617 672.215 313.904C672.938 313.191 673.787 312.581 674.764 312.073C675.74 311.565 676.79 311.146 677.913 310.813C679.036 310.481 680.203 310.237 681.414 310.081C682.635 309.925 683.846 309.847 685.047 309.847C685.545 309.847 686.053 309.861 686.57 309.891C687.098 309.91 687.649 309.944 688.226 309.993H688.372ZM686.907 317.698C686.907 316.868 686.727 316.189 686.365 315.662C686.014 315.135 685.545 314.715 684.959 314.402C684.852 314.656 684.749 314.92 684.651 315.193C684.554 315.457 684.466 315.73 684.388 316.014C683.704 315.818 683.128 315.687 682.659 315.618C682.2 315.55 681.814 315.516 681.502 315.516C680.887 315.516 680.267 315.618 679.642 315.823C679.017 316.028 678.455 316.326 677.957 316.717C677.459 317.098 677.049 317.566 676.727 318.123C676.414 318.67 676.258 319.29 676.258 319.983C676.258 320.647 676.424 321.258 676.756 321.814C677.098 322.361 677.542 322.869 678.089 323.338C678.177 323.035 678.24 322.728 678.279 322.415C678.328 322.103 678.362 321.78 678.382 321.448C679.104 321.78 679.744 322.01 680.301 322.137C680.857 322.264 681.346 322.327 681.766 322.327C682.41 322.327 683.04 322.225 683.655 322.02C684.271 321.805 684.817 321.497 685.296 321.097C685.784 320.696 686.175 320.213 686.468 319.646C686.761 319.07 686.907 318.421 686.907 317.698ZM718.709 310.857C717.498 312.234 716.58 313.724 715.955 315.325C715.33 316.917 715.018 318.641 715.018 320.496C715.018 321.473 715.101 322.459 715.267 323.455C715.433 324.451 715.691 325.462 716.043 326.487C715.301 326.507 714.529 326.575 713.729 326.692C713.045 326.8 712.288 326.956 711.458 327.161C710.628 327.376 709.812 327.674 709.012 328.055C708.396 326.453 707.64 324.925 706.741 323.47C705.843 322.015 704.822 320.633 703.68 319.324C703.797 322.088 703.465 324.944 702.684 327.894C700.906 327.337 699.275 327.059 697.791 327.059C697.312 327.059 696.79 327.088 696.224 327.146C695.657 327.205 695.052 327.288 694.407 327.396C695.628 326.019 696.556 324.529 697.19 322.928C697.835 321.326 698.157 319.573 698.157 317.669C698.157 317.054 698.118 316.419 698.04 315.765C697.962 315.101 697.84 314.407 697.674 313.685C697.068 313.226 696.458 312.786 695.843 312.366C695.237 311.937 694.617 311.517 693.982 311.106C694.881 311.185 695.706 311.209 696.458 311.18C697.22 311.15 697.957 311.067 698.67 310.931C699.393 310.784 700.12 310.584 700.853 310.33C701.595 310.066 702.405 309.734 703.284 309.334L709.495 319.471C709.437 319.002 709.397 318.533 709.378 318.064C709.358 317.596 709.349 317.132 709.349 316.673C709.349 315.247 709.515 313.851 709.847 312.483C710.179 311.106 710.721 309.744 711.473 308.396C712.605 309.139 713.763 309.715 714.944 310.125C716.126 310.525 717.381 310.77 718.709 310.857Z" fill="#611F22"/>
</g>
<g id="doorway">
<rect width="1250" height="525" fill="black" fill-opacity="0" transform="translate(25 100)"/>
<rect id="one" x="126" y="151" width="98" height="198" fill="#666666" stroke="black" stroke-width="2"/>
<path id="two" d="M426 150C426 122.938 447.938 101 475 101C502.062 101 524 122.938 524 150V299H426V150Z" fill="#666666" stroke="black" stroke-width="2"/>
<path id="three" d="M776 150C776 122.938 797.938 101 825 101C852.062 101 874 122.938 874 150V299H776V150Z" fill="#666666" stroke="black" stroke-width="2"/>
<rect id="four" x="1076" y="151" width="98" height="198" fill="#666666" stroke="black" stroke-width="2"/>
<path id="five" d="M26 455C26 438.984 38.9837 426 55 426H295C311.016 426 324 438.984 324 455V624H26V455Z" fill="#666666" stroke="black" stroke-width="2"/>
<rect id="six" x="576" y="382" width="148" height="198" fill="#666666" stroke="black" stroke-width="2"/>
<path id="seven" d="M976 455C976 438.984 988.984 426 1005 426H1245C1261.02 426 1274 438.984 1274 455V624H976V455Z" fill="#666666" stroke="black" stroke-width="2"/>
</g>
<g id="skore">
<rect width="225" height="34" fill="black" fill-opacity="0" transform="translate(25 18)"/>
<path id="text" d="M46.7822 39.9873C46.8115 40.1533 46.8262 40.3193 46.8262 40.4854C46.8359 40.6514 46.8408 40.8174 46.8408 40.9834C46.8408 41.8037 46.6943 42.5752 46.4014 43.2979C46.1182 44.0107 45.7227 44.6699 45.2148 45.2754C44.7168 45.8711 44.1211 46.4082 43.4277 46.8867C42.7344 47.3652 41.9873 47.7656 41.1865 48.0879C40.3857 48.4199 39.5459 48.6738 38.667 48.8496C37.7881 49.0254 36.9043 49.1133 36.0156 49.1133C35.4102 49.1133 34.7949 49.084 34.1699 49.0254C33.5547 48.9668 32.9346 48.9326 32.3096 48.9229C31.6943 48.9131 31.0742 48.9521 30.4492 49.04C29.834 49.1279 29.2188 49.3135 28.6035 49.5967C28.2617 48.4443 27.9004 47.4092 27.5195 46.4912C27.1484 45.5635 26.8066 44.7725 26.4941 44.1182C26.123 43.3564 25.7568 42.6826 25.3955 42.0967C26.5283 42.624 27.6367 43.0488 28.7207 43.3711C29.8047 43.6836 30.8203 43.9229 31.7676 44.0889C32.7246 44.2549 33.584 44.3623 34.3457 44.4111C35.1074 44.46 35.7324 44.4844 36.2207 44.4844C36.6895 44.4844 37.1631 44.4648 37.6416 44.4258C38.1299 44.377 38.6182 44.2988 39.1064 44.1914C38.7354 43.7812 38.3008 43.4443 37.8027 43.1807C37.3047 42.9072 36.7676 42.6729 36.1914 42.4775C35.625 42.2822 35.0293 42.1064 34.4043 41.9502C33.7891 41.7939 33.1787 41.6279 32.5732 41.4521C31.9678 41.2666 31.3818 41.0566 30.8154 40.8223C30.249 40.5781 29.7314 40.2705 29.2627 39.8994C28.6865 39.4502 28.2666 38.9375 28.0029 38.3613C27.7393 37.7852 27.5781 37.1602 27.5195 36.4863C27.1875 36.6035 26.8945 36.7207 26.6406 36.8379C26.3867 36.9453 26.1719 37.0381 25.9961 37.1162C25.791 37.2139 25.6104 37.3018 25.4541 37.3799C25.7764 36.501 26.2207 35.7246 26.7871 35.0508C27.3633 34.377 28.0078 33.791 28.7207 33.293C29.4336 32.7949 30.1904 32.375 30.9912 32.0332C31.8018 31.6914 32.6025 31.4082 33.3936 31.1836C35.249 30.666 37.251 30.373 39.3994 30.3047C40.0342 30.2949 40.7275 30.2705 41.4795 30.2314C42.124 30.1924 42.8711 30.1338 43.7207 30.0557C44.5801 29.9775 45.498 29.8604 46.4746 29.7041C46.2207 30.0654 46.0107 30.4609 45.8447 30.8906C45.6885 31.3203 45.5664 31.7598 45.4785 32.209C45.3906 32.6582 45.3271 33.1025 45.2881 33.542C45.2588 33.9717 45.2441 34.3721 45.2441 34.7432C45.2441 34.9775 45.249 35.2021 45.2588 35.417C45.2686 35.6318 45.2832 35.8223 45.3027 35.9883C45.3223 36.1836 45.3467 36.3691 45.376 36.5449C43.7256 35.8711 42.1631 35.3975 40.6885 35.124C39.2139 34.8506 37.8223 34.7139 36.5137 34.7139C36.123 34.7139 35.7471 34.7285 35.3857 34.7578C35.0244 34.7773 34.6631 34.8018 34.3018 34.8311C34.3799 35.2119 34.5264 35.5293 34.7412 35.7832C34.9658 36.0371 35.1904 36.2422 35.415 36.3984C35.6787 36.5742 35.9668 36.7109 36.2793 36.8086C36.9434 36.9941 37.6611 37.2236 38.4326 37.4971C39.2139 37.7705 39.9902 38.1025 40.7617 38.4932C41.543 38.874 42.2852 39.3281 42.9883 39.8555C43.7012 40.373 44.3262 40.9785 44.8633 41.6719C45.1953 41.4277 45.5225 41.1641 45.8447 40.8809C46.167 40.5977 46.4795 40.2998 46.7822 39.9873ZM57.2705 31.2568C56.8896 33.7471 56.6699 36.2373 56.6113 38.7275C58.0664 37.5459 59.4141 36.2324 60.6543 34.7871C61.9043 33.332 63.0859 31.7549 64.1992 30.0557C65.1367 31.0518 66.1523 31.9014 67.2461 32.6045C68.3398 33.3076 69.5068 33.8984 70.7471 34.377H70.8057C69.5361 35.3535 68.2031 36.2617 66.8066 37.1016C65.4102 37.9316 63.9844 38.6543 62.5293 39.2695C63.5059 40.7637 64.6191 42.1406 65.8691 43.4004C67.1289 44.6602 68.4766 45.8516 69.9121 46.9746H69.7803C67.1924 47.4629 64.6729 48.3467 62.2217 49.626C61.5576 48.0049 60.7617 46.5156 59.834 45.1582C58.916 43.8008 57.832 42.5801 56.582 41.4961C56.6016 42.5801 56.6406 43.6641 56.6992 44.748C56.7578 45.832 56.8408 46.916 56.9482 48C56.2061 48.0391 55.4834 48.0977 54.7803 48.1758C54.0771 48.2637 53.374 48.3711 52.6709 48.498C51.9775 48.6348 51.2793 48.791 50.5762 48.9668C49.873 49.1426 49.1455 49.3379 48.3936 49.5527C49.7998 45.4512 50.5029 41.252 50.5029 36.9551C50.5029 35.9297 50.4541 34.8896 50.3564 33.835C50.2686 32.7705 50.1367 31.6719 49.9609 30.5391C50.8984 30.8223 51.7725 31.0322 52.583 31.1689C53.4033 31.3057 54.1992 31.374 54.9707 31.374C55.2832 31.374 55.6152 31.3691 55.9668 31.3594C56.3281 31.3398 56.7627 31.3057 57.2705 31.2568ZM89.8779 30.9932C89.5361 31.2666 89.2139 31.5547 88.9111 31.8574C88.6084 32.1504 88.3203 32.4629 88.0469 32.7949C88.9648 32.9707 89.834 33.2539 90.6543 33.6445C91.4746 34.0254 92.1875 34.5088 92.793 35.0947C93.3984 35.6807 93.877 36.3643 94.2285 37.1455C94.5898 37.917 94.7705 38.7764 94.7705 39.7236C94.7705 40.7979 94.5898 41.7695 94.2285 42.6387C93.877 43.498 93.3838 44.2695 92.749 44.9531C92.124 45.627 91.3818 46.2129 90.5225 46.7109C89.6631 47.1992 88.7305 47.6045 87.7246 47.9268C86.7188 48.2393 85.6592 48.4736 84.5459 48.6299C83.4326 48.7861 82.3096 48.8643 81.1768 48.8643C80.7764 48.8643 80.3613 48.8545 79.9316 48.835C79.502 48.8252 79.082 48.8057 78.6719 48.7764C78.2715 48.7471 77.8955 48.7031 77.5439 48.6445C77.2021 48.5957 76.9141 48.5322 76.6797 48.4541C76.9531 48.2295 77.2119 48.0049 77.4561 47.7803C77.71 47.5459 77.9395 47.3115 78.1445 47.0771C77.2168 46.9014 76.3428 46.6377 75.5225 46.2861C74.7119 45.9346 73.999 45.4854 73.3838 44.9385C72.7686 44.3818 72.2803 43.7324 71.9189 42.9902C71.5674 42.2383 71.3916 41.3789 71.3916 40.4121C71.3916 39.2793 71.5967 38.2588 72.0068 37.3506C72.4268 36.4326 72.998 35.6172 73.7207 34.9043C74.4434 34.1914 75.293 33.5811 76.2695 33.0732C77.2461 32.5654 78.2959 32.1455 79.4189 31.8135C80.542 31.4814 81.709 31.2373 82.9199 31.0811C84.1406 30.9248 85.3516 30.8467 86.5527 30.8467C87.0508 30.8467 87.5586 30.8613 88.0762 30.8906C88.6035 30.9102 89.1553 30.9443 89.7314 30.9932H89.8779ZM88.4131 38.6982C88.4131 37.8682 88.2324 37.1895 87.8711 36.6621C87.5195 36.1348 87.0508 35.7148 86.4648 35.4023C86.3574 35.6562 86.2549 35.9199 86.1572 36.1934C86.0596 36.457 85.9717 36.7305 85.8936 37.0137C85.21 36.8184 84.6338 36.6865 84.165 36.6182C83.7061 36.5498 83.3203 36.5156 83.0078 36.5156C82.3926 36.5156 81.7725 36.6182 81.1475 36.8232C80.5225 37.0283 79.9609 37.3262 79.4629 37.7168C78.9648 38.0977 78.5547 38.5664 78.2324 39.123C77.9199 39.6699 77.7637 40.29 77.7637 40.9834C77.7637 41.6475 77.9297 42.2578 78.2617 42.8145C78.6035 43.3613 79.0479 43.8691 79.5947 44.3379C79.6826 44.0352 79.7461 43.7275 79.7852 43.415C79.834 43.1025 79.8682 42.7803 79.8877 42.4482C80.6104 42.7803 81.25 43.0098 81.8066 43.1367C82.3633 43.2637 82.8516 43.3271 83.2715 43.3271C83.916 43.3271 84.5459 43.2246 85.1611 43.0195C85.7764 42.8047 86.3232 42.4971 86.8018 42.0967C87.29 41.6963 87.6807 41.2129 87.9736 40.6465C88.2666 40.0703 88.4131 39.4209 88.4131 38.6982ZM119.307 47.2236C117.881 47.3311 116.494 47.5801 115.146 47.9707C113.809 48.3516 112.446 48.8789 111.06 49.5527C110.845 47.4531 110.332 45.5146 109.521 43.7373C109.131 43.8252 108.735 43.8936 108.335 43.9424C107.935 43.9912 107.52 44.0156 107.09 44.0156C106.924 44.0156 106.758 44.0156 106.592 44.0156C106.436 44.0156 106.274 44.0059 106.108 43.9863C106.138 45.5 106.196 47.0088 106.284 48.5127C105.972 48.4639 105.659 48.4297 105.347 48.4102C105.034 48.4004 104.736 48.3955 104.453 48.3955C103.486 48.3955 102.427 48.5029 101.274 48.7178C100.122 48.9424 98.8818 49.2744 97.5537 49.7139C98.0518 48.3662 98.4766 47.0283 98.8281 45.7002C99.1895 44.3721 99.4727 43.0293 99.6777 41.6719C99.0137 41.2324 98.4424 40.8027 97.9639 40.3828C97.4951 39.9629 97.1387 39.6113 96.8945 39.3281C97.373 39.4648 97.8662 39.5918 98.374 39.709C98.8916 39.8262 99.4092 39.9287 99.9268 40.0166C100.044 38.9033 100.103 37.7754 100.103 36.6328V36.0908C99.5752 36.2568 99.0527 36.4326 98.5352 36.6182C98.0176 36.8037 97.5 37.0088 96.9824 37.2334C97.2852 36.2568 97.4365 35.3535 97.4365 34.5234C97.4365 33.8301 97.3486 33.1758 97.1729 32.5605C96.9971 31.9355 96.7432 31.3496 96.4111 30.8027C98.5107 30.5098 100.366 30.3145 101.978 30.2168C103.599 30.1094 105.044 30.0557 106.313 30.0557C106.899 30.0557 107.573 30.0703 108.335 30.0996C109.097 30.1191 109.878 30.1777 110.679 30.2754C111.479 30.373 112.275 30.5146 113.066 30.7002C113.867 30.8857 114.6 31.1396 115.264 31.4619C115.928 31.7842 116.494 32.1895 116.963 32.6777C117.441 33.166 117.764 33.752 117.93 34.4355C118.154 34.3281 118.374 34.2207 118.589 34.1133C118.804 34.0059 119.023 33.8838 119.248 33.7471C119.131 34.4502 118.936 35.1533 118.662 35.8564C118.389 36.5498 118.047 37.2236 117.637 37.8779C117.236 38.5322 116.768 39.1523 116.23 39.7383C115.703 40.3242 115.127 40.8662 114.502 41.3643C115.908 43.5908 117.51 45.5439 119.307 47.2236ZM109.375 34.5234C108.984 34.5234 108.521 34.5479 107.983 34.5967C107.446 34.6357 106.86 34.6846 106.226 34.7432C106.196 35.6807 106.167 36.6182 106.138 37.5557C106.118 38.4834 106.108 39.4062 106.108 40.3242C106.694 40.2363 107.246 40.0947 107.764 39.8994C108.281 39.6943 108.74 39.4307 109.141 39.1084C109.541 38.7861 109.868 38.3955 110.122 37.9365C110.386 37.4678 110.557 36.9209 110.635 36.2959C111.006 36.2373 111.382 36.1787 111.763 36.1201C112.153 36.0615 112.549 35.9932 112.949 35.915C112.93 35.915 112.92 35.9102 112.92 35.9004V35.8857H112.949C112.754 35.6709 112.549 35.4805 112.334 35.3145C112.129 35.1387 111.89 34.9922 111.616 34.875C111.343 34.7578 111.025 34.6699 110.664 34.6113C110.303 34.5527 109.873 34.5234 109.375 34.5234ZM129.619 47.9414C128.613 47.9414 127.71 47.9463 126.909 47.9561C126.108 47.9561 125.361 47.9756 124.668 48.0146C123.984 48.0635 123.33 48.1318 122.705 48.2197C122.09 48.3174 121.455 48.4541 120.801 48.6299C121.406 46.7842 121.86 44.9629 122.163 43.166C122.476 41.3594 122.632 39.5527 122.632 37.7461C122.632 36.1152 122.5 34.4648 122.236 32.7949C121.631 32.707 121.03 32.6338 120.435 32.5752H120.376L122.119 32.1357L121.812 30.6562C122.388 30.8223 122.954 30.9736 123.511 31.1104C124.067 31.2471 124.634 31.3691 125.21 31.4766C126.851 31.1738 128.501 30.9443 130.161 30.7881C131.831 30.6221 133.521 30.5391 135.229 30.5391C135.981 30.5391 136.733 30.5586 137.485 30.5977C138.247 30.6367 139.062 30.6855 139.932 30.7441C139.727 31.4766 139.57 32.209 139.463 32.9414C139.355 33.6738 139.302 34.4258 139.302 35.1973C139.302 35.4316 139.307 35.7051 139.316 36.0176C139.336 36.3203 139.37 36.6523 139.419 37.0137C137.749 36.3789 136.079 35.8125 134.409 35.3145C132.739 34.8066 131.04 34.3672 129.312 33.9961C129.233 34.6602 129.17 35.3193 129.121 35.9736C129.082 36.6279 129.048 37.2871 129.019 37.9512C129.849 37.7949 130.693 37.6826 131.553 37.6143C132.422 37.5361 133.325 37.4873 134.263 37.4678C134.175 37.8291 134.102 38.1904 134.043 38.5518C133.994 38.9131 133.97 39.2842 133.97 39.665C133.97 40.2314 134.058 40.8711 134.233 41.584C133.354 41.2227 132.485 40.8906 131.626 40.5879C130.767 40.2754 129.897 39.9971 129.019 39.7529C129.019 40.5439 129.033 41.3691 129.062 42.2285C129.092 43.0781 129.146 43.9326 129.224 44.792C130.894 44.5674 132.573 44.2695 134.263 43.8984C135.952 43.5176 137.671 43.0537 139.419 42.5068C139.302 43.1416 139.209 43.7617 139.141 44.3672C139.072 44.9629 139.038 45.5342 139.038 46.0811C139.038 47.1162 139.155 48.1758 139.39 49.2598C137.729 48.8887 136.089 48.5713 134.468 48.3076C132.856 48.0439 131.221 47.8291 129.561 47.6631L129.619 47.9414Z" fill="black"/>
<path id="500" d="M175.559 42.457C175.559 43.2695 175.41 44.0469 175.113 44.7891C174.816 45.5312 174.41 46.1562 173.895 46.6641C173.332 47.2109 172.66 47.6328 171.879 47.9297C171.105 48.2188 170.207 48.3633 169.184 48.3633C168.23 48.3633 167.312 48.2617 166.43 48.0586C165.547 47.8633 164.801 47.625 164.191 47.3438V44.8711H164.355C164.996 45.2773 165.746 45.625 166.605 45.9141C167.465 46.1953 168.309 46.3359 169.137 46.3359C169.691 46.3359 170.227 46.2578 170.742 46.1016C171.266 45.9453 171.73 45.6719 172.137 45.2812C172.48 44.9453 172.738 44.543 172.91 44.0742C173.09 43.6055 173.18 43.0625 173.18 42.4453C173.18 41.8438 173.074 41.3359 172.863 40.9219C172.66 40.5078 172.375 40.1758 172.008 39.9258C171.602 39.6289 171.105 39.4219 170.52 39.3047C169.941 39.1797 169.293 39.1172 168.574 39.1172C167.887 39.1172 167.223 39.1641 166.582 39.2578C165.949 39.3516 165.402 39.4453 164.941 39.5391V30.5508H175.441V32.6016H167.203V37.2422C167.539 37.2109 167.883 37.1875 168.234 37.1719C168.586 37.1562 168.891 37.1484 169.148 37.1484C170.094 37.1484 170.922 37.2305 171.633 37.3945C172.344 37.5508 172.996 37.832 173.59 38.2383C174.215 38.668 174.699 39.2227 175.043 39.9023C175.387 40.582 175.559 41.4336 175.559 42.457ZM190.934 39.2695C190.934 42.4023 190.441 44.7031 189.457 46.1719C188.48 47.6328 186.961 48.3633 184.898 48.3633C182.805 48.3633 181.273 47.6211 180.305 46.1367C179.344 44.6523 178.863 42.3711 178.863 39.293C178.863 36.1914 179.352 33.9023 180.328 32.4258C181.305 30.9414 182.828 30.1992 184.898 30.1992C186.992 30.1992 188.52 30.9531 189.48 32.4609C190.449 33.9609 190.934 36.2305 190.934 39.2695ZM187.852 44.5898C188.125 43.957 188.309 43.2148 188.402 42.3633C188.504 41.5039 188.555 40.4727 188.555 39.2695C188.555 38.082 188.504 37.0508 188.402 36.1758C188.309 35.3008 188.121 34.5586 187.84 33.9492C187.566 33.3477 187.191 32.8945 186.715 32.5898C186.246 32.2852 185.641 32.1328 184.898 32.1328C184.164 32.1328 183.555 32.2852 183.07 32.5898C182.594 32.8945 182.215 33.3555 181.934 33.9727C181.668 34.5508 181.484 35.3047 181.383 36.2344C181.289 37.1641 181.242 38.1836 181.242 39.293C181.242 40.5117 181.285 41.5312 181.371 42.3516C181.457 43.1719 181.641 43.9062 181.922 44.5547C182.18 45.1641 182.543 45.6289 183.012 45.9492C183.488 46.2695 184.117 46.4297 184.898 46.4297C185.633 46.4297 186.242 46.2773 186.727 45.9727C187.211 45.668 187.586 45.207 187.852 44.5898ZM206.191 39.2695C206.191 42.4023 205.699 44.7031 204.715 46.1719C203.738 47.6328 202.219 48.3633 200.156 48.3633C198.062 48.3633 196.531 47.6211 195.562 46.1367C194.602 44.6523 194.121 42.3711 194.121 39.293C194.121 36.1914 194.609 33.9023 195.586 32.4258C196.562 30.9414 198.086 30.1992 200.156 30.1992C202.25 30.1992 203.777 30.9531 204.738 32.4609C205.707 33.9609 206.191 36.2305 206.191 39.2695ZM203.109 44.5898C203.383 43.957 203.566 43.2148 203.66 42.3633C203.762 41.5039 203.812 40.4727 203.812 39.2695C203.812 38.082 203.762 37.0508 203.66 36.1758C203.566 35.3008 203.379 34.5586 203.098 33.9492C202.824 33.3477 202.449 32.8945 201.973 32.5898C201.504 32.2852 200.898 32.1328 200.156 32.1328C199.422 32.1328 198.812 32.2852 198.328 32.5898C197.852 32.8945 197.473 33.3555 197.191 33.9727C196.926 34.5508 196.742 35.3047 196.641 36.2344C196.547 37.1641 196.5 38.1836 196.5 39.293C196.5 40.5117 196.543 41.5312 196.629 42.3516C196.715 43.1719 196.898 43.9062 197.18 44.5547C197.438 45.1641 197.801 45.6289 198.27 45.9492C198.746 46.2695 199.375 46.4297 200.156 46.4297C200.891 46.4297 201.5 46.2773 201.984 45.9727C202.469 45.668 202.844 45.207 203.109 44.5898Z" fill="black"/>
</g>
<g id="health">
<rect width="336.497" height="35.1139" fill="black" fill-opacity="0" transform="translate(482 24)"/>
<path id="Star" d="M499.749 25.6022L503.259 36.2876L503.371 36.6316H503.734H515.076L505.904 43.2233L505.607 43.4371L505.721 43.7853L509.227 54.4597L500.041 47.8571L499.749 47.6474L499.457 47.8571L490.27 54.4597L493.776 43.7853L493.891 43.4371L493.593 43.2233L484.421 36.6316H495.764H496.126L496.239 36.2876L499.749 25.6022Z" fill="#950B0B" stroke="black"/>
<path id="Star_2" d="M800.749 25.6022L804.259 36.2876L804.371 36.6316H804.734H816.076L806.904 43.2233L806.607 43.4371L806.721 43.7853L810.227 54.4597L801.041 47.8571L800.749 47.6474L800.457 47.8571L791.27 54.4597L794.776 43.7853L794.891 43.4371L794.593 43.2233L785.421 36.6316H796.764H797.126L797.239 36.2876L800.749 25.6022Z" fill="#950B0B" stroke="black"/>
</g>
<g id="ammunition">
<rect width="175" height="40" fill="black" fill-opacity="0" transform="translate(1100 26)"/>
<g id="Group">
<rect width="20.5882" height="40" fill="black" fill-opacity="0" transform="translate(1254.41 26)"/>
<path id="Rectangle 3" d="M1254.91 36.2941C1254.91 30.885 1259.3 26.5 1264.71 26.5C1270.12 26.5 1274.5 30.885 1274.5 36.2941V65.5H1254.91V36.2941Z" fill="#F1A35B" stroke="#926E4D"/>
<path id="Line" d="M1254.41 62.5854H1275M1254.41 41.6097H1275" stroke="#926E4D"/>
</g>
<g id="Group_2">
<rect width="20.5882" height="40" fill="black" fill-opacity="0" transform="translate(1223.53 26)"/>
<path id="Rectangle 3_2" d="M1224.03 36.2941C1224.03 30.885 1228.41 26.5 1233.82 26.5C1239.23 26.5 1243.62 30.885 1243.62 36.2941V65.5H1224.03V36.2941Z" fill="#F1A35B" stroke="#926E4D"/>
<path id="Line_2" d="M1223.53 62.5854H1244.12M1223.53 41.6097H1244.12" stroke="#926E4D"/>
</g>
<g id="Group_3">
<rect width="20.5882" height="40" fill="black" fill-opacity="0" transform="translate(1192.65 26)"/>
<path id="Rectangle 3_3" d="M1193.15 36.2941C1193.15 30.885 1197.53 26.5 1202.94 26.5C1208.35 26.5 1212.74 30.885 1212.74 36.2941V65.5H1193.15V36.2941Z" fill="#F1A35B" stroke="#926E4D"/>
<path id="Line_3" d="M1192.65 62.5854H1213.24M1192.65 41.6097H1213.24" stroke="#926E4D"/>
</g>
<g id="Group_4">
<rect width="20.5882" height="40" fill="black" fill-opacity="0" transform="translate(1161.76 26)"/>
<path id="Rectangle 3_4" d="M1162.26 36.2941C1162.26 30.885 1166.65 26.5 1172.06 26.5C1177.47 26.5 1181.85 30.885 1181.85 36.2941V65.5H1162.26V36.2941Z" fill="#F1A35B" stroke="#926E4D"/>
<path id="Line_4" d="M1161.76 62.5854H1182.35M1161.76 41.6097H1182.35" stroke="#926E4D"/>
</g>
<g id="Group_5">
<rect width="20.5882" height="40" fill="black" fill-opacity="0" transform="translate(1130.88 26)"/>
<path id="Rectangle 3_5" d="M1131.38 36.2941C1131.38 30.885 1135.77 26.5 1141.18 26.5C1146.59 26.5 1150.97 30.885 1150.97 36.2941V65.5H1131.38V36.2941Z" fill="#F1A35B" stroke="#926E4D"/>
<path id="Line_5" d="M1130.88 62.5854H1151.47M1130.88 41.6097H1151.47" stroke="#926E4D"/>
</g>
<g id="Group_6">
<rect width="20.5882" height="40" fill="black" fill-opacity="0" transform="translate(1100 26)"/>
<path id="Rectangle 3_6" d="M1100.5 36.2941C1100.5 30.885 1104.88 26.5 1110.29 26.5C1115.7 26.5 1120.09 30.885 1120.09 36.2941V65.5H1100.5V36.2941Z" fill="#F1A35B" stroke="#926E4D"/>
<path id="Line_6" d="M1100 62.5854H1120.59M1100 41.6097H1120.59" stroke="#926E4D"/>
</g>
</g>
</g>
</svg>
